<?xml version="1.0" encoding="UTF-8"?>
<svg  viewBox="0 0 1024 1024" version="1.1" xmlns="http://www.w3.org/2000/svg"><path d="M512 53.333333a202.709333 202.709333 0 0 1 200.149333 170.666667h99.584c18.986667 0 34.816 0 47.786667 0.853333 13.568 0.938667 26.325333 2.944 38.741333 8.064a117.333333 117.333333 0 0 1 63.488 63.488c5.12 12.373333 7.125333 25.173333 8.064 38.698667 0.853333 13.013333 0.853333 28.842667 0.853334 47.786667v2.176c0 18.986667 0 34.816-0.853334 47.786666a120.405333 120.405333 0 0 1-8.064 38.741334c-7.424 17.877333-19.072 33.450667-33.749333 45.568v149.845333c0 46.592 0 83.498667-2.432 113.28-2.474667 30.421333-7.68 56.192-19.626667 79.701333a202.709333 202.709333 0 0 1-88.618666 88.576c-23.466667 11.989333-49.28 17.194667-79.701334 19.669334-29.781333 2.432-66.688 2.432-113.28 2.432H399.658667c-46.592 0-83.541333 0-113.28-2.432-30.421333-2.474667-56.192-7.68-79.701334-19.626667a202.709333 202.709333 0 0 1-88.576-88.618667c-11.989333-23.466667-17.194667-49.28-19.669333-79.701333-2.432-29.781333-2.432-66.688-2.432-113.28V517.12a117.333333 117.333333 0 0 1-33.749333-45.568c-5.12-12.373333-7.125333-25.173333-8.021334-38.741333-0.896-12.970667-0.896-28.8-0.896-47.786667v-2.133333c0-18.986667 0-34.816 0.853334-47.786667 0.938667-13.568 2.944-26.325333 8.064-38.741333A117.333333 117.333333 0 0 1 125.738667 232.96c12.373333-5.12 25.173333-7.125333 38.698666-8.021333 13.013333-0.896 28.842667-0.896 47.786667-0.896H311.893333c15.36-96.725333 99.114667-170.666667 200.149334-170.666667z m347.52 489.813334c-12.970667 0.853333-28.8 0.853333-47.786667 0.853333H714.666667v32a32 32 0 0 1-64 0v-32h-277.333334v32a32 32 0 0 1-64 0v-32H212.266667c-18.986667 0-34.816 0-47.786667-0.853333l-4.48-0.426667v122.88c0 48.298667 0 82.645333 2.218667 109.482667 2.133333 26.453333 6.272 42.88 12.885333 55.893333a138.666667 138.666667 0 0 0 60.586667 60.586667c13.013333 6.613333 29.44 10.752 55.893333 12.885333 26.88 2.218667 61.184 2.218667 109.482667 2.218667h221.866666c48.298667 0 82.645333 0 109.482667-2.218667 26.453333-2.133333 42.88-6.272 55.893333-12.928a138.666667 138.666667 0 0 0 60.586667-60.586667c6.613333-12.970667 10.752-29.354667 12.885333-55.850666 2.218667-26.88 2.218667-61.184 2.218667-109.482667v-122.88l-4.48 0.426667zM213.333333 288c-20.309333 0-33.962667 0-44.501333 0.768-10.24 0.682667-15.274667 1.92-18.602667 3.285333a53.333333 53.333333 0 0 0-28.842666 28.842667c-1.365333 3.328-2.602667 8.32-3.285334 18.602667-0.725333 10.538667-0.768 24.192-0.768 44.501333s0 33.962667 0.768 44.501333c0.682667 10.24 1.92 15.274667 3.285334 18.602667 5.418667 13.056 15.786667 23.466667 28.842666 28.842667 3.328 1.365333 8.32 2.602667 18.602667 3.285333 10.538667 0.725333 24.192 0.768 44.501333 0.768h96v-32a32 32 0 0 1 64 0v32h277.333334v-32a32 32 0 0 1 64 0v32H810.666667c20.309333 0 33.962667 0 44.501333-0.768 10.24-0.682667 15.274667-1.92 18.602667-3.285333 13.056-5.418667 23.466667-15.786667 28.842666-28.842667 1.365333-3.328 2.602667-8.32 3.285334-18.602667 0.725333-10.538667 0.768-24.192 0.768-44.501333s0-33.962667-0.768-44.501333c-0.682667-10.24-1.92-15.274667-3.285334-18.602667a53.376 53.376 0 0 0-28.885333-28.842667c-3.285333-1.365333-8.277333-2.602667-18.56-3.285333A727.381333 727.381333 0 0 0 810.666667 288H213.333333z m298.666667-170.666667a138.709333 138.709333 0 0 0-134.954667 106.666667h269.909334A138.709333 138.709333 0 0 0 512 117.333333z" /></svg>