<?xml version="1.0" encoding="UTF-8"?>
<svg  viewBox="0 0 1024 1024" version="1.1" xmlns="http://www.w3.org/2000/svg"><path d="M512 53.333333a32 32 0 0 1 32 32v85.333334a32 32 0 0 1-64 0V85.333333a32 32 0 0 1 32-32z m0 768a32 32 0 0 1 32 32v85.333334a32 32 0 0 1-64 0v-85.333334a32 32 0 0 1 32-32z m0-490.666666a181.333333 181.333333 0 1 0 0 362.666666 181.333333 181.333333 0 0 0 0-362.666666zM266.666667 512a245.333333 245.333333 0 1 1 490.666666 0 245.333333 245.333333 0 0 1-490.666666 0zM85.333333 480a32 32 0 0 0 0 64h85.333334a32 32 0 0 0 0-64H85.333333z m768 0a32 32 0 0 0 0 64h85.333334a32 32 0 0 0 0-64h-85.333334zM169.386667 169.386667a32 32 0 0 1 45.226666 0l64 64a32 32 0 0 1-45.226666 45.226666l-64-64a32 32 0 0 1 0-45.226666z m576 576a32 32 0 0 1 45.226666 0l64 64a32 32 0 1 1-45.226666 45.226666l-64-64a32 32 0 0 1 0-45.226666z m-576 64a32 32 0 1 0 45.226666 45.226666l64-64a32 32 0 1 0-45.226666-45.226666l-64 64z m576-576a32 32 0 0 0 45.226666 45.226666l64-64a32 32 0 0 0-45.226666-45.226666l-64 64z" /></svg>