<?xml version="1.0" encoding="UTF-8"?>
<svg  viewBox="0 0 1024 1024" version="1.1" xmlns="http://www.w3.org/2000/svg"><path d="M494.933333 53.333333h-1.450666c-70.442667 0-125.312 0-169.301334 3.584-44.672 3.669333-80.938667 11.178667-113.578666 27.818667a288 288 0 0 0-125.866667 125.866667c-16.64 32.64-24.149333 68.906667-27.818667 113.578666-3.584 43.989333-3.584 98.858667-3.584 169.301334V530.517333c0 70.442667 0 125.312 3.584 169.301334 3.669333 44.672 11.178667 80.938667 27.818667 113.578666a288 288 0 0 0 125.866667 125.866667c32.64 16.64 68.906667 24.149333 113.578666 27.818667 43.989333 3.584 98.858667 3.584 169.301334 3.584H530.517333c70.442667 0 125.312 0 169.301334-3.584 44.672-3.669333 80.938667-11.178667 113.578666-27.818667a288 288 0 0 0 125.866667-125.866667c16.64-32.64 24.149333-68.906667 27.818667-113.578666 3.584-43.989333 3.584-98.858667 3.584-169.301334V493.482667c0-70.442667 0-125.312-3.584-169.301334-3.669333-44.672-11.178667-80.938667-27.818667-113.578666a288 288 0 0 0-125.866667-125.866667c-32.64-16.64-68.906667-24.149333-113.578666-27.818667-43.989333-3.584-98.858667-3.584-169.301334-3.584H494.933333zM239.658667 141.738667c22.101333-11.264 49.066667-17.706667 89.728-21.034667 41.088-3.328 93.312-3.370667 165.546666-3.370667h34.133334c72.192 0 124.458667 0 165.546666 3.413334 40.704 3.285333 67.626667 9.728 89.770667 20.992a224 224 0 0 1 97.877333 97.92c11.264 22.101333 17.706667 49.066667 21.034667 89.728 3.328 41.088 3.370667 93.312 3.370667 165.546666v34.133334c0 72.192 0 124.458667-3.413334 165.546666-3.285333 40.704-9.728 67.626667-20.992 89.770667a224 224 0 0 1-97.877333 97.877333c-22.144 11.264-49.066667 17.706667-89.770667 21.034667-41.088 3.328-93.354667 3.370667-165.546666 3.370667h-34.133334c-72.234667 0-124.458667 0-165.546666-3.413334-40.704-3.285333-67.626667-9.728-89.728-20.992a224 224 0 0 1-97.92-97.877333c-11.264-22.144-17.706667-49.066667-21.034667-89.770667-3.328-41.088-3.370667-93.354667-3.370667-165.546666v-34.133334c0-72.234667 0-124.458667 3.413334-165.546666 3.285333-40.704 9.728-67.626667 20.992-89.728a224 224 0 0 1 97.92-97.92z m384.298666 224.512a32 32 0 0 0-53.248 0L426.666667 582.314667l-58.709334-88.064A32 32 0 0 0 341.333333 480H256a32 32 0 0 0 0 64h68.224l75.818667 113.749333a32 32 0 0 0 53.248 0L597.333333 441.685333l58.709334 88.064a32 32 0 0 0 26.624 14.250667h85.333333a32 32 0 0 0 0-64h-68.224l-75.818667-113.749333z" /></svg>