<?xml version="1.0" encoding="UTF-8"?>
<svg  viewBox="0 0 1024 1024" version="1.1" xmlns="http://www.w3.org/2000/svg"><path d="M202.666667 256a138.666667 138.666667 0 1 1 277.333333 0 138.666667 138.666667 0 0 1-277.333333 0zM341.333333 53.333333a202.666667 202.666667 0 1 0 0 405.333334 202.666667 202.666667 0 0 0 0-405.333334z m298.666667 0a32 32 0 0 0 0 64 138.666667 138.666667 0 0 1 0 277.333334 32 32 0 0 0 0 64 202.666667 202.666667 0 1 0 0-405.333334zM10.666667 802.133333a236.8 236.8 0 0 1 236.8-236.8h187.733333a236.8 236.8 0 0 1 236.8 236.8 168.533333 168.533333 0 0 1-168.533333 168.533334H179.2A168.533333 168.533333 0 0 1 10.666667 802.133333z m236.8-172.8a172.8 172.8 0 0 0-172.8 172.8 104.533333 104.533333 0 0 0 104.533333 104.533334h324.266667a104.533333 104.533333 0 0 0 104.533333-104.533334 172.8 172.8 0 0 0-172.8-172.8H247.466667z m477.866666-64a32 32 0 0 0 0 64h51.2a172.8 172.8 0 0 1 172.8 172.8 104.533333 104.533333 0 0 1-104.533333 104.533334H725.333333a32 32 0 0 0 0 64h119.466667a168.533333 168.533333 0 0 0 168.533333-168.533334 236.8 236.8 0 0 0-236.8-236.8H725.333333z" /></svg>