<?xml version="1.0" encoding="UTF-8"?>
<svg  viewBox="0 0 1024 1024" version="1.1" xmlns="http://www.w3.org/2000/svg"><path d="M105.386667 105.386667a32 32 0 0 1 45.226666 0l120.576 120.533333 172.928 172.928 181.034667 181.034667 172.928 172.928 120.533333 120.576a32 32 0 1 1-45.226666 45.226666l-102.229334-102.229333c-68.096 41.472-154.154667 68.949333-259.157333 68.949333-158.549333 0-273.365333-62.592-348.373333-140.458666C89.898667 668.288 53.333333 575.36 53.333333 512c0-72.106667 47.530667-184.32 146.730667-266.666667l-94.72-94.72a32 32 0 0 1 0-45.226666z m140.117333 185.386666C155.776 362.88 117.333333 460.544 117.333333 512c0 43.306667 27.434667 121.045333 92.373334 188.458667 63.658667 66.133333 162.133333 120.874667 302.293333 120.874666 86.144 0 156.330667-20.693333 212.352-51.754666l-124.16-124.074667A160 160 0 0 1 378.453333 423.765333L245.546667 290.773333zM425.386667 470.613333a96 96 0 0 0 128.042666 128.042667l-128-128.042667zM512 202.666667c-44.16 0-84.053333 5.418667-119.893333 14.848a416.469333 416.469333 0 0 0-19.797334 5.717333 32 32 0 0 1-19.285333-61.013333c7.466667-2.346667 15.104-4.565333 22.826667-6.613334A534.4 534.4 0 0 1 512 138.666667c158.549333 0 273.365333 62.592 348.373333 140.458666C934.144 355.712 970.666667 448.64 970.666667 512c0 46.506667-19.626667 108.032-57.728 166.741333-4.992 7.68-10.325333 15.36-16 23.04a32 32 0 1 1-51.370667-38.229333c4.864-6.528 9.386667-13.056 13.653333-19.626667 33.408-51.456 47.445333-101.034667 47.445334-131.925333 0-43.306667-27.434667-121.045333-92.373334-188.458667-63.658667-66.133333-162.133333-120.874667-302.293333-120.874666z" /></svg>