<?xml version="1.0" encoding="UTF-8"?>
<svg  viewBox="0 0 1024 1024" version="1.1" xmlns="http://www.w3.org/2000/svg"><path d="M204.458667 75.776c20.522667 1.706667 45.952 6.229333 76.970666 11.690667l310.357334 54.741333c39.082667 6.912 70.144 12.373333 95.146666 18.773333 25.6 6.528 47.104 14.506667 66.346667 27.52a202.624 202.624 0 0 1 71.808 85.589334c9.472 21.248 13.610667 43.776 15.573333 70.186666 1.962667 25.685333 1.962667 57.258667 1.962667 96.896v90.837334a92.373333 92.373333 0 0 1 97.28 151.978666l-277.333333 277.333334a92.330667 92.330667 0 0 1-140.672-118.613334h-80.768c-39.68 0-71.210667-0.042667-96.896-2.005333-26.410667-1.962667-48.938667-6.101333-70.186667-15.573333a202.624 202.624 0 0 1-85.589333-71.765334c-13.013333-19.285333-20.992-40.746667-27.52-66.389333-6.4-25.002667-11.861333-56.064-18.773334-95.146667L87.466667 281.472c-5.461333-31.018667-9.984-56.448-11.690667-76.970667-1.792-20.949333-1.194667-41.045333 6.784-59.776A117.333333 117.333333 0 0 1 144.64 82.56c18.773333-7.978667 38.826667-8.576 59.776-6.826667zM894.72 598.613333a28.373333 28.373333 0 0 0-40.106667 0l-277.333333 277.333334a28.330667 28.330667 0 0 0 40.106667 40.064l277.333333-277.333334c11.093333-11.093333 11.093333-29.013333 0-40.106666zM342.656 297.386667A32 32 0 0 1 297.386667 342.613333L138.922667 184.234667c-0.085333 3.968 0 8.874667 0.554666 14.933333 1.450667 17.237333 5.418667 39.808 11.221334 72.704l54.314666 307.669333c7.168 40.533333 12.202667 69.248 17.92 91.648 5.589333 21.973333 11.306667 35.626667 18.56 46.421334 14.549333 21.504 34.858667 38.528 58.581334 49.109333 11.946667 5.290667 26.325333 8.533333 48.938666 10.24 23.04 1.706667 52.181333 1.749333 93.354667 1.749333h141.653333l194.602667-194.56v-141.653333c0-41.216 0-70.4-1.706667-93.44-1.706667-22.613333-4.992-36.992-10.282666-48.896a138.709333 138.709333 0 0 0-49.109334-58.581333c-10.794667-7.253333-24.448-12.970667-46.421333-18.56-22.357333-5.717333-51.072-10.752-91.648-17.92l-307.626667-54.314667c-32.938667-5.802667-55.466667-9.770667-72.789333-11.221333a135.168 135.168 0 0 0-14.805333-0.554667L342.613333 297.386667zM469.333333 352a117.333333 117.333333 0 1 1-0.042666 234.666667 117.333333 117.333333 0 0 1 0-234.666667z m0 64a53.333333 53.333333 0 1 0 0 106.666667 53.333333 53.333333 0 0 0 0-106.666667z" /></svg>