<?xml version="1.0" encoding="UTF-8"?>
<svg  viewBox="0 0 1024 1024" version="1.1" xmlns="http://www.w3.org/2000/svg"><path d="M560.341333 98.432a181.333333 181.333333 0 0 0-96.682666 0c-16.384 4.522667-33.109333 12.970667-55.893334 28.586667-23.125333 15.872-50.602667 37.802667-89.002666 68.565333l-85.333334 68.266667c-48.426667 38.741333-67.797333 54.570667-81.578666 73.6a181.333333 181.333333 0 0 0-27.989334 58.24c-6.272 22.698667-6.528 47.658667-6.528 109.696V725.333333A181.333333 181.333333 0 0 0 298.666667 906.666667c29.44 0 53.333333-23.893333 53.333333-53.333334v-170.666666a160 160 0 0 1 320 0v170.666666c0 29.44 23.893333 53.333333 53.333333 53.333334A181.333333 181.333333 0 0 0 906.666667 725.333333v-219.946666c0-62.037333-0.256-87.04-6.528-109.653334a181.333333 181.333333 0 0 0-27.989334-58.282666c-13.781333-19.029333-33.152-34.858667-81.578666-73.6l-85.333334-68.266667c-38.4-30.72-65.877333-52.693333-89.002666-68.565333-22.784-15.616-39.509333-24.064-55.893334-28.586667zM446.592 36.736a245.333333 245.333333 0 0 1 130.816 0c25.856 7.168 49.237333 19.797333 75.050667 37.546667 25.258667 17.322667 54.570667 40.746667 91.776 70.528l0.981333 0.768 85.333333 68.266666 3.84 3.072c43.392 34.688 70.058667 56.064 89.6 82.944 17.237333 23.808 30.037333 50.517333 37.888 78.848 8.789333 32 8.789333 66.218667 8.789334 121.770667V725.333333A245.333333 245.333333 0 0 1 725.333333 970.666667 117.333333 117.333333 0 0 1 608 853.333333v-170.666666a96 96 0 0 0-192 0v170.666666A117.333333 117.333333 0 0 1 298.666667 970.666667 245.333333 245.333333 0 0 1 53.333333 725.333333v-219.946666-4.906667c0-55.552 0-89.728 8.789334-121.770667a245.333333 245.333333 0 0 1 37.888-78.848c19.498667-26.88 46.208-48.213333 89.6-82.944l3.84-3.072 85.333333-68.266666 0.981333-0.768c37.205333-29.781333 66.517333-53.205333 91.776-70.570667 25.813333-17.706667 49.194667-30.336 75.050667-37.504z" /></svg>