<?xml version="1.0" encoding="UTF-8"?>
<svg  viewBox="0 0 1024 1024" version="1.1" xmlns="http://www.w3.org/2000/svg"><path d="M512 53.333333A245.333333 245.333333 0 0 0 266.666667 298.666667v170.666666a245.333333 245.333333 0 0 0 490.666666 0V298.666667A245.333333 245.333333 0 0 0 512 53.333333zM330.666667 298.666667a181.333333 181.333333 0 0 1 362.666666 0v170.666666a181.333333 181.333333 0 0 1-362.666666 0V298.666667z m-128 170.666666a32 32 0 0 0-64 0c0 117.248 53.802667 210.944 126.72 274.773334 63.018667 55.082667 141.482667 89.002667 214.613333 96.853333V938.666667a32 32 0 0 0 64 0v-97.706667c73.130667-7.850667 151.594667-41.770667 214.613333-96.853333 72.917333-63.829333 126.72-157.525333 126.72-274.773334a32 32 0 0 0-64 0c0 96.085333-43.690667 173.056-104.874666 226.56-61.781333 54.101333-139.818667 82.773333-204.458667 82.773334-64.64 0-142.677333-28.672-204.458667-82.773334C246.357333 642.432 202.666667 565.461333 202.666667 469.333333z" /></svg>